<svg xmlns="http://www.w3.org/2000/svg" viewBox="0 0 29.51 36">
    <defs>
        <style>.cls-1,.cls-2,.cls-3{fill:none;stroke:#DDD;}.cls-1{stroke-miterlimit:10;}.cls-1,.cls-2{stroke-width:2px;}.cls-2,.cls-3{stroke-linecap:round;stroke-linejoin:round;}</style>
    </defs>
    <title>exam_icon</title>
    <g id="Layer_2" data-name="Layer 2">
        <g id="Layer_1-2" data-name="Layer 1">
            <path id="exam" class="cls-1" d="M28.51,6.16V32.05a3,3,0,0,1-3,3H4a3,3,0,0,1-2.95-3V4A3,3,0,0,1,4,1H22.22Z"/>
            <polygon class="cls-2" points="22.22 1 28.01 6.02 22.12 6.02 22.22 1"/>
            <rect class="cls-3" x="4.79" y="8.37" width="3.93" height="3.93"/>
            <rect class="cls-3" x="4.79" y="14.26" width="3.93" height="3.93"/>
            <rect class="cls-3" x="4.79" y="20.16" width="3.93" height="3.93"/>
            <rect class="cls-3" x="4.79" y="26.05" width="3.93" height="3.93"/>
            <rect class="cls-3" x="10.69" y="8.37" width="13.75" height="3.93" rx="1"/>
            <rect class="cls-3" x="10.69" y="14.26" width="13.75" height="3.93" rx="1"/>
            <rect class="cls-3" x="10.69" y="20.16" width="13.75" height="3.93" rx="1"/>
            <rect class="cls-3" x="10.69" y="26.05" width="13.75" height="3.93" rx="1"/>
            <polyline class="cls-3" points="5.77 9.35 6.76 11.31 9.7 7.38"/>
        </g>
    </g>
</svg>